<?xml version="1.0" encoding="UTF-8" standalone="no"?>
<!-- Created with Inkscape (http://www.inkscape.org/) -->

<svg
   xmlns:dc="http://purl.org/dc/elements/1.1/"
   xmlns:cc="http://creativecommons.org/ns#"
   xmlns:rdf="http://www.w3.org/1999/02/22-rdf-syntax-ns#"
   xmlns:svg="http://www.w3.org/2000/svg"
   xmlns="http://www.w3.org/2000/svg"
   xmlns:sodipodi="http://sodipodi.sourceforge.net/DTD/sodipodi-0.dtd"
   xmlns:inkscape="http://www.inkscape.org/namespaces/inkscape"
   version="1.1"
   id="svg3723"
   xml:space="preserve"
   width="576.4267"
   height="772.01331"
   viewBox="0 0 576.4267 772.01331"
   sodipodi:docname="XCOM_SHIELD.svg"
   inkscape:version="0.92.4 (5da689c313, 2019-01-14)"><metadata
     id="metadata3729"><rdf:RDF><cc:Work
         rdf:about=""><dc:format>image/svg+xml</dc:format><dc:type
           rdf:resource="http://purl.org/dc/dcmitype/StillImage" /><dc:title></dc:title></cc:Work></rdf:RDF></metadata><defs
     id="defs3727" /><sodipodi:namedview
     pagecolor="#ffffff"
     bordercolor="#666666"
     borderopacity="1"
     objecttolerance="10"
     gridtolerance="10"
     guidetolerance="10"
     inkscape:pageopacity="0"
     inkscape:pageshadow="2"
     inkscape:window-width="1648"
     inkscape:window-height="1628"
     id="namedview3725"
     showgrid="false"
     inkscape:zoom="1.2227769"
     inkscape:cx="284.91769"
     inkscape:cy="340.39994"
     inkscape:window-x="1464"
     inkscape:window-y="51"
     inkscape:window-maximized="0"
     inkscape:current-layer="g3731" /><g
     id="g3731"
     inkscape:groupmode="layer"
     inkscape:label="ink_ext_XXXXXX"
     transform="matrix(1.3333333,0,0,-1.3333333,0,772.01333)"><g
       id="g3733"
       transform="matrix(0.10950575,0,0,0.1,-19.627457,1.2267161)"><path
         d="m 2956.12,5489.32 c -22.66,0 -41.72,-7.88 -57.16,-23.63 -15.43,-15.76 -23.16,-35.79 -23.16,-60.09 0,-27.08 9.73,-48.49 29.16,-64.25 15.11,-12.31 32.44,-18.47 51.99,-18.47 22.11,0 40.93,7.99 56.49,23.96 15.55,15.98 23.32,35.68 23.32,59.09 0,23.3 -7.82,43.03 -23.49,59.18 -15.66,16.14 -34.72,24.21 -57.15,24.21 z m 0.49,45.61 c 34.65,0 64.43,-12.54 89.37,-37.61 24.93,-25.08 37.39,-55.66 37.39,-91.72 0,-35.73 -12.3,-65.97 -36.9,-90.72 -24.59,-24.74 -54.44,-37.11 -89.52,-37.11 -36.75,0 -67.29,12.7 -91.61,38.11 -24.31,25.41 -36.47,55.6 -36.47,90.55 0,23.41 5.65,44.95 16.99,64.59 11.32,19.64 26.89,35.2 46.72,46.68 19.81,11.49 41.16,17.23 64.03,17.23 z m -413.33,-6.15 h 46.6 v -200.41 h 67.91 v -44.45 h -114.51 z m -237.45,0 h 46.27 v -244.86 h -46.27 z m -204.83,-39.96 -32.82,-32.45 c -20.77,21.97 -44.99,32.95 -72.63,32.95 -24.11,0 -44.3,-7.98 -60.57,-23.97 -16.26,-15.97 -24.41,-35.4 -24.41,-58.25 0,-23.64 8.44,-43.67 25.33,-60.09 16.89,-16.42 37.72,-24.63 62.49,-24.63 16.11,0 29.69,3.38 40.74,10.15 11.06,6.76 19.97,17.36 26.75,31.79 h -70.91 v 43.77 h 123.17 l 0.34,-10.32 c 0,-21.41 -5.56,-41.72 -16.65,-60.91 -11.1,-19.2 -25.47,-33.85 -43.11,-43.95 -17.65,-10.1 -38.35,-15.14 -62.08,-15.14 -25.42,0 -48.08,5.52 -68.01,16.56 -19.91,11.04 -35.67,26.77 -47.27,47.19 -11.59,20.41 -17.39,42.44 -17.39,66.07 0,32.41 10.71,60.59 32.13,84.57 25.4,28.52 58.47,42.77 99.2,42.77 21.31,0 41.22,-3.94 59.75,-11.82 15.65,-6.65 30.97,-18.08 45.95,-34.29 z m -479.89,39.96 h 46.27 v -244.86 h -46.27 z m -402.66,0 h 47.92 l 61.6,-173.95 62.5,173.95 h 47.86 l -88.21,-244.86 h -44.95 l -86.72,244.86"
         style="fill:#100f0d;fill-opacity:1;fill-rule:nonzero;stroke:none"
         id="path3735"
         inkscape:connector-curvature="0" /><path
         d="m 1296.1,5128.99 -33.53,-31.97 c -22.81,24.11 -48.47,36.17 -76.99,36.17 -24.07,0 -44.34,-8.23 -60.82,-24.69 -16.49,-16.45 -24.73,-36.73 -24.73,-60.85 0,-16.8 3.65,-31.71 10.95,-44.74 7.3,-13.03 17.62,-23.25 30.97,-30.68 13.34,-7.43 28.17,-11.14 44.48,-11.14 13.92,0 26.64,2.59 38.15,7.79 11.52,5.21 24.19,14.66 37.99,28.37 l 32.5,-33.92 c -18.6,-18.16 -36.19,-30.75 -52.74,-37.78 -16.55,-7.02 -35.45,-10.53 -56.67,-10.53 -39.17,0 -71.22,12.42 -96.16,37.25 -24.95,24.83 -37.42,56.65 -37.42,95.47 0,25.11 5.68,47.43 17.05,66.96 11.34,19.51 27.62,35.21 48.79,47.09 21.18,11.87 43.98,17.81 68.42,17.81 20.77,0 40.78,-4.39 60.02,-13.17 19.24,-8.78 35.82,-21.26 49.74,-37.44"
         style="fill:#100f0d;fill-opacity:1;fill-rule:nonzero;stroke:none"
         id="path3737"
         inkscape:connector-curvature="0" /><path
         d="m 1539.56,5132.68 c -23.32,0 -42.91,-8.11 -58.8,-24.32 -15.89,-16.22 -23.83,-36.82 -23.83,-61.82 0,-27.86 10,-49.89 30,-66.1 15.54,-12.67 33.37,-19.01 53.48,-19.01 22.74,0 42.12,8.22 58.12,24.66 15.99,16.44 24,36.7 24,60.79 0,23.98 -8.06,44.26 -24.17,60.88 -16.12,16.61 -35.72,24.92 -58.8,24.92 z m 0.51,46.92 c 35.64,0 66.29,-12.9 91.94,-38.71 25.64,-25.8 38.46,-57.25 38.46,-94.35 0,-36.76 -12.65,-67.87 -37.95,-93.33 -25.31,-25.46 -56,-38.19 -92.11,-38.19 -37.8,0 -69.23,13.07 -94.24,39.22 -25.02,26.14 -37.54,57.2 -37.54,93.15 0,24.09 5.84,46.24 17.49,66.45 11.66,20.21 27.67,36.21 48.07,48.03 20.39,11.82 42.35,17.73 65.88,17.73"
         style="fill:#100f0d;fill-opacity:1;fill-rule:nonzero;stroke:none"
         id="path3739"
         inkscape:connector-curvature="0" /><path
         d="m 1796.07,5173.26 h 46 l 107.78,-165.77 v 165.77 h 47.94 v -251.9 h -46.12 l -107.65,165.25 v -165.25 h -47.95 v 251.9"
         style="fill:#100f0d;fill-opacity:1;fill-rule:nonzero;stroke:none"
         id="path3741"
         inkscape:connector-curvature="0" /><path
         d="m 2182.08,5173.26 h 125.01 v -46.75 h -77.4 v -45.72 h 77.4 v -46.07 h -77.4 v -113.36 h -47.61 v 251.9"
         style="fill:#100f0d;fill-opacity:1;fill-rule:nonzero;stroke:none"
         id="path3743"
         inkscape:connector-curvature="0" /><path
         d="m 2470.65,5173.26 h 47.61 v -251.9 h -47.61 v 251.9"
         style="fill:#100f0d;fill-opacity:1;fill-rule:nonzero;stroke:none"
         id="path3745"
         inkscape:connector-curvature="0" /><path
         d="m 2754,5127.02 v -158.91 h 22.27 c 21.92,0 37.82,2.51 47.69,7.54 9.88,5.03 17.95,13.49 24.23,25.37 6.27,11.89 9.43,26.52 9.43,43.89 0,26.74 -7.48,47.48 -22.44,62.23 -13.47,13.25 -35.11,19.88 -64.91,19.88 z m -47.6,46.24 h 56.8 c 36.61,0 63.82,-4.54 81.61,-13.62 17.8,-9.07 32.47,-23.82 43.98,-44.26 11.52,-20.44 17.28,-44.3 17.28,-71.58 0,-19.41 -3.22,-37.25 -9.66,-53.51 -6.45,-16.27 -15.35,-29.77 -26.7,-40.5 -11.35,-10.74 -23.64,-18.16 -36.87,-22.27 -13.23,-4.11 -36.15,-6.16 -68.78,-6.16 h -57.66 v 251.9"
         style="fill:#100f0d;fill-opacity:1;fill-rule:nonzero;stroke:none"
         id="path3747"
         inkscape:connector-curvature="0" /><path
         d="m 3175.95,5132.68 c -23.32,0 -42.91,-8.11 -58.8,-24.32 -15.88,-16.22 -23.83,-36.82 -23.83,-61.82 0,-27.86 10,-49.89 30,-66.1 15.55,-12.67 33.37,-19.01 53.49,-19.01 22.73,0 42.11,8.22 58.11,24.66 16,16.44 24,36.7 24,60.79 0,23.98 -8.06,44.26 -24.17,60.88 -16.12,16.61 -35.72,24.92 -58.8,24.92 z m 0.51,46.92 c 35.65,0 66.29,-12.9 91.93,-38.71 25.65,-25.8 38.48,-57.25 38.48,-94.35 0,-36.76 -12.66,-67.87 -37.96,-93.33 -25.31,-25.46 -56.01,-38.19 -92.1,-38.19 -37.82,0 -69.23,13.07 -94.25,39.22 -25.02,26.14 -37.53,57.2 -37.53,93.15 0,24.09 5.82,46.24 17.48,66.45 11.65,20.21 27.68,36.21 48.07,48.03 20.39,11.82 42.35,17.73 65.88,17.73"
         style="fill:#100f0d;fill-opacity:1;fill-rule:nonzero;stroke:none"
         id="path3749"
         inkscape:connector-curvature="0" /><path
         d="m 1148.84,5406.35 c 0,-18.98 -15.4,-34.38 -34.38,-34.38 -18.99,0 -34.38,15.4 -34.38,34.38 0,18.99 15.39,34.38 34.38,34.38 18.98,0 34.38,-15.39 34.38,-34.38"
         style="fill:#100f0d;fill-opacity:1;fill-rule:nonzero;stroke:none"
         id="path3751"
         inkscape:connector-curvature="0" /><path
         d="m 3234.5,5406.35 c 0,-18.98 -15.39,-34.38 -34.38,-34.38 -18.99,0 -34.38,15.4 -34.38,34.38 0,18.99 15.39,34.38 34.38,34.38 18.99,0 34.38,-15.39 34.38,-34.38"
         style="fill:#100f0d;fill-opacity:1;fill-rule:nonzero;stroke:none"
         id="path3753"
         inkscape:connector-curvature="0" /><path
         d="m 338.066,2848.46 c 0,0 243.512,137.52 615.954,243.52 303.28,86.32 684.71,128.92 684.71,128.92 L 690.453,4335.36 Z m 492.762,716.23 65.891,197.67 68.761,-197.67 183.35,-65.89 -180.49,-65.9 -67.324,-183.35 -70.188,180.49 -180.484,65.89 180.484,68.76"
         style="fill:#100f0d;fill-opacity:1;fill-rule:nonzero;stroke:none"
         id="path3755"
         inkscape:connector-curvature="0" /><path
         d="m 2690.16,3220.9 c 0,0 404.18,-46.47 678.98,-124.21 435.48,-123.2 613.11,-248.23 613.11,-248.23 l -346.66,1486.9 z m 690.46,343.79 65.87,197.67 68.76,-197.67 183.36,-65.89 -180.49,-65.9 -67.32,-183.35 -70.18,180.49 -180.5,65.89 180.5,68.76"
         style="fill:#100f0d;fill-opacity:1;fill-rule:nonzero;stroke:none"
         id="path3757"
         inkscape:connector-curvature="0" /><path
         d="m 2160.15,2960.19 160.44,243.88 c 0,0 -77.35,5.37 -159.01,5.37 -81.65,0 -161.87,-5.37 -161.87,-5.37 z m -191.95,289.36 c 0,0 81.65,5.02 189.09,5.01 107.45,0 191.95,-5.01 191.95,-5.01 L 3366.28,4796.61 H 956.891 Z m 123.2,976.94 65.89,197.67 68.75,-197.67 183.35,-65.9 -180.48,-65.89 -67.33,-183.36 -70.18,180.49 -180.49,65.9 180.49,68.76"
         style="fill:#100f0d;fill-opacity:1;fill-rule:nonzero;stroke:none"
         id="path3759"
         inkscape:connector-curvature="0" /><path
         d="M 0,2255.45 2157.29,0 4323.17,2249.71 3466.57,5790.07 H 859.492 Z M 948.297,5647.48 H 3374.88 L 4179.95,2306.99 2161.58,164.02 146.148,2304.12 948.297,5647.48"
         style="fill:#100f0d;fill-opacity:1;fill-rule:nonzero;stroke:none"
         id="path3761"
         inkscape:connector-curvature="0" /><path
         d="m 1830.68,600.922 330.9,-352.383 330.9,352.383 c 0,0 -201.97,-8.59 -330.9,-8.59 -128.92,0 -330.9,8.59 -330.9,8.59"
         style="fill:#100f0d;fill-opacity:1;fill-rule:nonzero;stroke:none"
         id="path3763"
         inkscape:connector-curvature="0" /><path
         d="m 2660.08,781.41 c 0,0 -203.41,-34.371 -498.5,-34.371 -328.03,0 -502.79,34.371 -502.79,34.371 l -412.55,442.64 197.68,300.82 c 0,0 293.65,-81.65 717.66,-81.65 355.25,0 717.67,81.65 717.67,81.65 l 193.38,-300.82 -412.55,-442.64"
         style="fill:#100f0d;fill-opacity:1;fill-rule:nonzero;stroke:none"
         id="path3765"
         inkscape:connector-curvature="0" /><path
         d="m 1505.51,1620.85 389.64,593.03 c 0,0 101.71,-25.77 256.41,-24.34 154.7,1.42 275.02,24.34 275.02,24.34 l 392.5,-593.03 c 0,0 -292.22,-73.06 -659.65,-73.06 -351.66,0 -653.92,73.06 -653.92,73.06"
         style="fill:#100f0d;fill-opacity:1;fill-rule:nonzero;stroke:none"
         id="path3767"
         inkscape:connector-curvature="0" /><path
         d="M 2159.43,2613.54 2369.3,2298.4 c 0,0 -41.57,-22.92 -207.01,-25.79 -165.43,-2.86 -211.28,22.92 -211.28,22.92 l 208.42,318.01"
         style="fill:#100f0d;fill-opacity:1;fill-rule:nonzero;stroke:none"
         id="path3769"
         inkscape:connector-curvature="0" /><path
         d="m 3902.02,2089.26 -521.4,-541.47 -97.43,106 c 0,0 242.09,124.62 371.02,236.35 128.92,111.74 190.97,237.01 190.97,237.01 l 56.84,-37.89"
         style="fill:#100f0d;fill-opacity:1;fill-rule:nonzero;stroke:none"
         id="path3771"
         inkscape:connector-curvature="0" /><path
         d="m 3718.67,2920.08 c 0,0 -151.81,66.05 -295.1,106.01 -326.24,90.96 -429.73,108.86 -429.73,108.86 0,0 177.63,-51.57 303.69,-107.43 126.04,-55.87 194.8,-98.84 194.8,-98.84 l 226.34,-8.6"
         style="fill:#100f0d;fill-opacity:1;fill-rule:nonzero;stroke:none"
         id="path3773"
         inkscape:connector-curvature="0" /><path
         d="m 2649.34,3179.36 c 0,0 156.9,-52.29 232.06,-100.99 128.2,-83.09 176.19,-158.29 176.19,-158.29 l 345.94,10.03 c 0,0 -150.41,92.4 -335.2,152.56 -184.79,60.16 -418.99,96.69 -418.99,96.69"
         style="fill:#100f0d;fill-opacity:1;fill-rule:nonzero;stroke:none"
         id="path3775"
         inkscape:connector-curvature="0" /><path
         d="m 3002.43,2920.08 c 0,0 -37.95,69.48 -146.82,138.95 -111.89,71.41 -223.46,103.14 -223.46,103.14 L 2382.9,2869.95 c 0,0 182.64,17.19 307.26,30.08 124.63,12.89 312.27,20.05 312.27,20.05"
         style="fill:#100f0d;fill-opacity:1;fill-rule:nonzero;stroke:none"
         id="path3777"
         inkscape:connector-curvature="0" /><path
         d="m 3038.25,2869.95 c 0,0 -92.4,-4.3 -333.04,-21.49 -240.66,-17.18 -358.84,-23.64 -358.84,-23.64 l -21.49,-23.63 c 0,0 159.01,-38.67 365.28,-100.99 206.28,-62.31 312.27,-111.73 312.27,-111.73 0,0 55.16,55.86 57.31,140.74 2.14,84.87 -21.49,140.74 -21.49,140.74"
         style="fill:#100f0d;fill-opacity:1;fill-rule:nonzero;stroke:none"
         id="path3779"
         inkscape:connector-curvature="0" /><path
         d="m 2656.32,2654 c -77.65,26.24 -314.25,99.92 -314.25,99.92 l 330.9,-386.77 c 0,0 85.19,29.07 171.14,82.79 85.95,53.72 121.09,93.41 121.09,93.41 0,0 -230.74,84.25 -308.88,110.65"
         style="fill:#100f0d;fill-opacity:1;fill-rule:nonzero;stroke:none"
         id="path3781"
         inkscape:connector-curvature="0" /><path
         d="m 3296.07,2872.09 c -50.13,-0.1 -200.52,-2.14 -200.52,-2.14 0,0 30.08,-54.44 34.38,-132.15 5.75,-104.09 -44.41,-177.27 -44.41,-177.27 0,0 153.28,-54.78 342.36,-138.94 198.65,-88.42 349.51,-173.32 349.51,-173.32 0,0 74.49,136.07 -37.23,348.8 -82.23,156.55 -227.77,261.42 -227.77,261.42 0,0 -75.92,13.89 -216.32,13.6"
         style="fill:#100f0d;fill-opacity:1;fill-rule:nonzero;stroke:none"
         id="path3783"
         inkscape:connector-curvature="0" /><path
         d="m 3592.61,2859.21 c 0,0 107.37,-4.98 170.47,-10.75 63.2,-5.78 131.42,-19.61 131.42,-19.61 0,0 38.27,-16.92 63.45,-34.65 35.82,-25.23 49.07,-40.09 49.07,-40.09 l 103.42,-438.53 -152.55,-163.3 -79.35,46.8 c 0,0 71.84,174.83 -27.02,361.45 -114.95,217.03 -258.91,298.68 -258.91,298.68"
         style="fill:#100f0d;fill-opacity:1;fill-rule:nonzero;stroke:none"
         id="path3785"
         inkscape:connector-curvature="0" /><path
         d="m 2734.57,2294.1 244.05,-287.08 227.23,-267.29 c 0,0 204.84,85.96 371.01,222.03 138.81,113.69 170.45,212.02 170.45,212.02 0,0 -189.44,115.2 -361.47,190.81 -136.21,59.86 -334.7,141.16 -334.7,141.16 0,0 -48.71,-54.08 -114.6,-107.09 -44.29,-35.64 -201.97,-104.56 -201.97,-104.56"
         style="fill:#100f0d;fill-opacity:1;fill-rule:nonzero;stroke:none"
         id="path3787"
         inkscape:connector-curvature="0" /><path
         d="m 418.992,2089.26 521.414,-541.47 97.414,106 c 0,0 -242.09,124.62 -371.011,236.35 -128.922,111.74 -190.965,237.01 -190.965,237.01 l -56.852,-37.89"
         style="fill:#100f0d;fill-opacity:1;fill-rule:nonzero;stroke:none"
         id="path3789"
         inkscape:connector-curvature="0" /><path
         d="m 602.348,2920.08 c 0,0 151.812,66.05 295.093,106.01 326.239,90.96 429.739,108.86 429.739,108.86 0,0 -177.64,-51.57 -303.69,-107.43 -126.049,-55.87 -194.806,-98.84 -194.806,-98.84 l -226.336,-8.6"
         style="fill:#100f0d;fill-opacity:1;fill-rule:nonzero;stroke:none"
         id="path3791"
         inkscape:connector-curvature="0" /><path
         d="m 1671.68,3179.36 c 0,0 -156.9,-52.29 -232.06,-100.99 -128.2,-83.09 -176.19,-158.29 -176.19,-158.29 l -345.942,10.03 c 0,0 150.412,92.4 335.202,152.56 184.79,60.16 418.99,96.69 418.99,96.69"
         style="fill:#100f0d;fill-opacity:1;fill-rule:nonzero;stroke:none"
         id="path3793"
         inkscape:connector-curvature="0" /><path
         d="m 1318.58,2920.08 c 0,0 37.96,69.48 146.83,138.95 111.89,71.41 223.46,103.14 223.46,103.14 l 249.25,-292.22 c 0,0 -182.64,17.19 -307.27,30.08 -124.62,12.89 -312.27,20.05 -312.27,20.05"
         style="fill:#100f0d;fill-opacity:1;fill-rule:nonzero;stroke:none"
         id="path3795"
         inkscape:connector-curvature="0" /><path
         d="m 1282.77,2869.95 c 0,0 92.39,-4.3 333.05,-21.49 240.65,-17.18 358.83,-23.64 358.83,-23.64 l 21.48,-23.63 c 0,0 -159,-38.67 -365.28,-100.99 -206.27,-62.31 -312.27,-111.73 -312.27,-111.73 0,0 -55.15,55.86 -57.3,140.74 -2.14,84.87 21.49,140.74 21.49,140.74"
         style="fill:#100f0d;fill-opacity:1;fill-rule:nonzero;stroke:none"
         id="path3797"
         inkscape:connector-curvature="0" /><path
         d="m 1664.7,2654 c 77.64,26.24 314.25,99.92 314.25,99.92 l -330.9,-386.77 c 0,0 -85.2,29.07 -171.15,82.79 -85.94,53.72 -121.07,93.41 -121.07,93.41 0,0 230.73,84.25 308.87,110.65"
         style="fill:#100f0d;fill-opacity:1;fill-rule:nonzero;stroke:none"
         id="path3799"
         inkscape:connector-curvature="0" /><path
         d="m 1024.94,2872.09 c 50.14,-0.1 200.53,-2.14 200.53,-2.14 0,0 -30.08,-54.44 -34.38,-132.15 -5.76,-104.09 44.41,-177.27 44.41,-177.27 0,0 -153.28,-54.78 -342.363,-138.94 -198.657,-88.42 -349.52,-173.32 -349.52,-173.32 0,0 -74.484,136.07 37.242,348.8 82.231,156.55 227.762,261.42 227.762,261.42 0,0 75.922,13.89 216.319,13.6"
         style="fill:#100f0d;fill-opacity:1;fill-rule:nonzero;stroke:none"
         id="path3801"
         inkscape:connector-curvature="0" /><path
         d="m 728.406,2859.21 c 0,0 -107.367,-4.98 -170.468,-10.75 -63.204,-5.78 -131.418,-19.61 -131.418,-19.61 0,0 -38.278,-16.92 -63.457,-34.65 -35.813,-25.23 -49.071,-40.09 -49.071,-40.09 l -103.422,-438.53 152.559,-163.3 79.351,46.8 c 0,0 -71.843,174.83 27.012,361.45 114.949,217.03 258.914,298.68 258.914,298.68"
         style="fill:#100f0d;fill-opacity:1;fill-rule:nonzero;stroke:none"
         id="path3803"
         inkscape:connector-curvature="0" /><path
         d="M 1586.45,2294.1 1342.4,2007.02 1115.17,1739.73 c 0,0 -204.85,85.96 -371.01,222.03 -138.812,113.69 -170.461,212.02 -170.461,212.02 0,0 189.449,115.2 361.477,190.81 136.204,59.86 334.704,141.16 334.704,141.16 0,0 48.7,-54.08 114.59,-107.09 44.3,-35.64 201.98,-104.56 201.98,-104.56"
         style="fill:#100f0d;fill-opacity:1;fill-rule:nonzero;stroke:none"
         id="path3805"
         inkscape:connector-curvature="0" /></g></g></svg>